<svg width="250" height="250" viewBox="0 0 250 250" fill="none" xmlns="http://www.w3.org/2000/svg">
<path d="M142.143 178.17V41.4375L16.4375 178.17H142.143Z" fill="#2BC4EE"/>
<rect x="1" y="178.17" width="141.143" height="6.61607" fill="#666666"/>
<path d="M142.143 28.2052V209.044H157.58V28.2052H142.143Z" fill="#B3B3B3"/>
<path d="M157.58 196C181.5 159 171.965 131.127 157.58 83.3392L248 224.482C219.23 217.814 185.323 208.225 157.58 196Z" fill="#71D7F4"/>
<path d="M148.759 26C145.451 26 142.143 28.2054 142.143 28.2054V41.4375C145.451 41.4375 154.272 38.1295 157.58 38.1295C160.888 38.1295 167.504 41.4375 173.018 41.4375C178.531 41.4375 187.353 33.7187 190.661 28.2054C190.661 28.2054 178.06 32.3335 175.223 32.6161C172.387 32.8987 153.444 26 148.759 26Z" fill="#FA2E2E"/>
</svg>
