<?xml version="1.0" standalone="no"?>
<!DOCTYPE svg PUBLIC "-//W3C//DTD SVG 20010904//EN"
 "http://www.w3.org/TR/2001/REC-SVG-20010904/DTD/svg10.dtd">
<svg version="1.0" xmlns="http://www.w3.org/2000/svg"
 width="700.000000pt" height="700.000000pt" viewBox="0 0 700.000000 700.000000"
 preserveAspectRatio="xMidYMid meet">
<metadata>
Created by potrace 1.14, written by Peter Selinger 2001-2017
</metadata>
<g transform="translate(0.000000,700.000000) scale(0.100000,-0.100000)"
fill="#000000" stroke="none">
<path d="M0 3500 l0 -3500 3500 0 3500 0 0 3500 0 3500 -3500 0 -3500 0 0
-3500z m6457 2956 c6 -6 6 -5907 0 -5913 -3 -2 -1335 -5 -2961 -6 l-2956 -2 0
135 c0 171 0 5456 0 5647 l0 143 228 2 c368 5 5684 -1 5689 -6z"/>
<path d="M2294 5651 c-2 -2 -4 -154 -4 -338 l0 -333 1210 0 1210 0 0 335 c0
261 -3 335 -12 336 -43 3 -2400 3 -2404 0z"/>
<path d="M1348 4698 c-2 -7 -3 -551 -3 -1208 l1 -1195 337 -3 337 -2 0 1210 0
1210 -334 0 c-258 0 -335 -3 -338 -12z"/>
<path d="M4980 3500 l0 -1210 338 0 337 0 0 1210 0 1210 -337 0 -338 0 0
-1210z"/>
<path d="M2290 1683 l0 -338 1202 1 c662 1 1206 2 1211 3 4 1 7 152 7 336 l0
335 -1210 0 -1210 0 0 -337z"/>
</g>
</svg>
